<svg width="24" height="24" viewBox="0 0 24 24" fill="none" xmlns="http://www.w3.org/2000/svg">
<rect width="24" height="24" fill="#F2F2F2"/>
<g clip-path="url(#clip0_0_1)">
<rect width="1440" height="800" transform="translate(-1184 -511)" fill="white"/>
<rect x="-1184" y="-511" width="1440" height="800" fill="#FF7979"/>
<mask id="mask0_0_1" style="mask-type:alpha" maskUnits="userSpaceOnUse" x="-1184" y="-511" width="1440" height="800">
<rect x="-1184" y="-511" width="1440" height="800" fill="white"/>
</mask>
<g mask="url(#mask0_0_1)">
<g opacity="0.1">
<path fill-rule="evenodd" clip-rule="evenodd" d="M55.4691 20.5312C59.3595 14.7189 65.922 11 72.9062 11C84.531 11 94 20.6252 94 32.25C94 43.8748 84.531 53.5 72.9062 53.5C65.922 53.5 59.3595 49.7811 55.4691 43.9688H44.4688L40.7657 40.2657L36.0782 44.9532L31.3907 40.2657L26.6562 44.9996L14.5157 32.25L14 31.6873L25.7657 20.5312H55.4691ZM70.5625 32.25C70.5625 36.141 73.7028 39.2812 77.5938 39.2812C81.4847 39.2812 84.625 36.141 84.625 32.25C84.625 28.359 81.4847 25.2188 77.5938 25.2188C73.7028 25.2188 70.5625 28.359 70.5625 32.25Z" fill="#FDBF00"/>
</g>
</g>
<g filter="url(#filter0_d_0_1)">
<rect x="-449" y="-350" width="540" height="562" rx="10" fill="white"/>
</g>
<g clip-path="url(#clip1_0_1)">
<rect x="-408" y="-15" width="458" height="54" rx="4" fill="white" stroke="#FF7979" stroke-width="2"/>
<circle cx="12" cy="12" r="12" fill="#FF7979"/>
<rect x="11" y="6" width="2" height="9" rx="1" fill="white"/>
<rect x="11" y="17" width="2" height="2" rx="1" fill="white"/>
</g>
</g>
<defs>
<filter id="filter0_d_0_1" x="-449" y="-350" width="540" height="570" filterUnits="userSpaceOnUse" color-interpolation-filters="sRGB">
<feFlood flood-opacity="0" result="BackgroundImageFix"/>
<feColorMatrix in="SourceAlpha" type="matrix" values="0 0 0 0 0 0 0 0 0 0 0 0 0 0 0 0 0 0 127 0" result="hardAlpha"/>
<feOffset dy="8"/>
<feColorMatrix type="matrix" values="0 0 0 0 0 0 0 0 0 0 0 0 0 0 0 0 0 0 0.14688 0"/>
<feBlend mode="normal" in2="BackgroundImageFix" result="effect1_dropShadow_0_1"/>
<feBlend mode="normal" in="SourceGraphic" in2="effect1_dropShadow_0_1" result="shape"/>
</filter>
<clipPath id="clip0_0_1">
<rect width="1440" height="800" fill="white" transform="translate(-1184 -511)"/>
</clipPath>
<clipPath id="clip1_0_1">
<rect width="460" height="78" fill="white" transform="translate(-409 -16)"/>
</clipPath>
</defs>
</svg>
